<?xml version="1.0" encoding="UTF-8"?>
<svg width="512" height="512" viewBox="0 0 24 24" xmlns="http://www.w3.org/2000/svg">
  <g fill="black" stroke="none">
    <path d="M20.997 7.589L13.886 2.35a1.73 1.73 0 0 0-1.886 0L5.003 7.589C4.38 8.027 4 8.76 4 9.541V18.46c0 .78.38 1.514 1.003 1.951l7.111 5.238a1.73 1.73 0 0 0 1.886 0l7.013-5.145.098-.093c.623-.437 1.003-1.17 1.003-1.951V9.541c0-.781-.38-1.514-1.003-1.952h-.114zM13 18.75h-2.5V12H13a3.25 3.25 0 0 1 0 6.5h-2.5V12H13v6.75z"/>
  </g>
</svg> 